HIERARCHY
ROOT Hips
{
 OFFSET 0.000000 0.000000 0.000000
 CHANNELS 6 Xposition Yposition Zposition Yrotation Xrotation Zrotation
 JOINT Chest
 {
  OFFSET 0.000000 9.585900 0.002600
  CHANNELS 3 Yrotation Xrotation Zrotation
  JOINT Chest2
  {
   OFFSET 0.000000 9.601200 -0.005300
   CHANNELS 3 Yrotation Xrotation Zrotation
   JOINT Chest3
   {
    OFFSET 0.000000 9.561800 0.000000
    CHANNELS 3 Yrotation Xrotation Zrotation
    JOINT Chest4
    {
     OFFSET 0.000000 9.552100 0.000000
     CHANNELS 3 Yrotation Xrotation Zrotation
     JOINT Neck
     {
      OFFSET 0.000000 14.453000 0.000000
      CHANNELS 3 Yrotation Xrotation Zrotation
      JOINT Head
      {
       OFFSET 0.000000 8.936500 -0.011300
       CHANNELS 3 Yrotation Xrotation Zrotation
       End Site
       {
        OFFSET 0.000000 17.073600 -0.006000
       }
      }
     }
     JOINT RightCollar
     {
      OFFSET -2.921100 9.558500 0.000000
      CHANNELS 3 Yrotation Xrotation Zrotation
      JOINT RightShoulder
      {
       OFFSET -13.519700 0.000000 0.000000
       CHANNELS 3 Yrotation Xrotation Zrotation
       JOINT RightElbow
       {
        OFFSET 0.000000 -29.696600 0.000000
        CHANNELS 3 Yrotation Xrotation Zrotation
        JOINT RightWrist
        {
         OFFSET 0.000000 -24.004700 0.000000
         CHANNELS 3 Yrotation Xrotation Zrotation
         End Site
         {
          OFFSET 0.000000 -17.728500 0.000000
         }
        }
       }
      }
     }
     JOINT LeftCollar
     {
      OFFSET 2.921100 9.558500 0.000000
      CHANNELS 3 Yrotation Xrotation Zrotation
      JOINT LeftShoulder
      {
       OFFSET 13.519700 0.000000 0.000000
       CHANNELS 3 Yrotation Xrotation Zrotation
       JOINT LeftElbow
       {
        OFFSET 0.000000 -29.696600 0.000000
        CHANNELS 3 Yrotation Xrotation Zrotation
        JOINT LeftWrist
        {
         OFFSET 0.000000 -24.004700 0.000000
         CHANNELS 3 Yrotation Xrotation Zrotation
         End Site
         {
          OFFSET 0.000000 -17.728500 0.000000
         }
        }
       }
      }
     }
    }
   }
  }
 }
 JOINT RightHip
 {
  OFFSET -7.771700 -0.012900 -0.001300
  CHANNELS 3 Yrotation Xrotation Zrotation
  JOINT RightKnee
  {
   OFFSET 0.000000 -40.869800 0.001200
   CHANNELS 3 Yrotation Xrotation Zrotation
   JOINT RightAnkle
   {
    OFFSET 0.000000 -39.717900 0.002100
    CHANNELS 3 Yrotation Xrotation Zrotation
    JOINT RightToe
    {
     OFFSET 0.000000 -4.965400 11.033500
     CHANNELS 3 Yrotation Xrotation Zrotation
     End Site
     {
      OFFSET 0.000000 -1.423100 5.872300
     }
    }
   }
  }
 }
 JOINT LeftHip
 {
  OFFSET 7.771700 -0.012900 -0.001300
  CHANNELS 3 Yrotation Xrotation Zrotation
  JOINT LeftKnee
  {
   OFFSET 0.000000 -40.869800 0.001200
   CHANNELS 3 Yrotation Xrotation Zrotation
   JOINT LeftAnkle
   {
    OFFSET 0.000000 -39.717900 0.002100
    CHANNELS 3 Yrotation Xrotation Zrotation
    JOINT LeftToe
    {
     OFFSET 0.000000 -4.965400 11.033500
     CHANNELS 3 Yrotation Xrotation Zrotation
     End Site
     {
      OFFSET 0.000000 -1.423100 5.872300
     }
    }
   }
  }
 }
}
MOTION
Frames: 12
Frame Time: 0.008333
0.000000 85.388000 0.000000 0.000000 -5.767877 0.000000 0.000000 11.653817 0.000000 0.000000 -5.885947 0.000000 0.000000 -0.000000 0.000000 0.000000 -0.000000 0.000000 0.000000 12.528835 0.000000 0.000000 0.711642 0.000000 0.000000 -0.000000 0.000000 0.000000 0.000000 -90.000000 0.000000 -2.309062 0.000000 0.000000 2.309062 0.000000 0.000000 -0.000000 0.000000 0.000000 -0.000000 90.000000 0.000000 -2.309062 0.000000 0.000000 2.309062 0.000000 0.000000 8.520406 0.000000 0.000000 1.905762 0.000000 -0.000000 -4.658285 0.000000 0.000000 -0.000000 0.000000 0.000000 8.520406 0.000000 0.000000 1.905762 0.000000 -0.000000 -4.658285 0.000000 0.000000 -0.000000 0.000000
-15.263455 54.295059 25.995550 -173.859472 -31.772094 -11.532559 -0.558748 12.488068 4.589369 -0.303972 7.267754 1.661979 -0.322284 9.118926 2.077104 -0.302208 7.272980 1.662814 3.043874 21.380995 0.668110 3.110350 -2.907578 0.020590 0.459061 2.693204 -2.449285 -18.839230 -4.974513 8.180108 23.732425 -69.084828 -9.153564 9.383030 -9.279437 -21.003538 -8.117354 3.136976 -2.222263 3.349849 -1.901906 -3.792530 -75.418719 -75.864933 79.418645 12.578033 -8.250634 -1.761429 -17.465758 -33.540807 1.793682 28.369548 87.277180 24.941755 1.789995 -18.627668 2.776496 -0.076575 0.402131 0.000975 -16.357656 -46.159494 12.436663 169.997280 79.697352 164.498421 -1.691698 -15.836252 2.879111 -0.788033 -2.576692 -0.323466
-15.270181 54.310270 25.992464 -173.834991 -31.753965 -11.529454 -0.538950 12.512920 4.589330 -0.305993 7.270171 1.663136 -0.349921 9.089653 2.076488 -0.301135 7.275407 1.663373 3.055241 21.408085 0.665622 3.104892 -2.909886 0.021946 0.469038 2.693404 -2.499733 -18.868798 -4.969674 8.175341 23.470871 -69.107779 -8.891725 9.370444 -9.242761 -20.993964 -8.111818 3.141481 -2.214344 3.348918 -1.915531 -3.801798 -75.368261 -75.897140 79.385175 12.548211 -8.278939 -1.752657 -17.453153 -33.574637 1.766488 28.658415 87.306672 25.234796 1.806965 -18.650638 2.784739 -0.109848 0.403600 -0.003730 -16.377692 -46.165676 12.460898 170.158401 79.709009 164.627239 -1.751006 -15.887770 2.889505 -0.746792 -2.524114 -0.294952
-15.278899 54.328322 25.987884 -173.808626 -31.735254 -11.525104 -0.556588 12.508795 4.575485 -0.287709 7.290802 1.668116 -0.365843 9.073914 2.074376 -0.299580 7.277508 1.664221 3.064641 21.432607 0.663113 3.089852 -2.939595 0.027871 0.471478 2.685225 -2.529765 -18.894940 -4.951161 8.099537 23.123719 -69.158646 -8.531242 9.377394 -9.192071 -21.000984 -8.105847 3.149389 -2.206220 3.346407 -1.931309 -3.813340 -75.410703 -75.896836 79.423657 12.544223 -8.297157 -1.717917 -17.449780 -33.609127 1.745108 28.874063 87.343263 25.461131 1.751724 -18.679961 2.796239 -0.074057 0.411065 -0.001402 -16.392320 -46.186887 12.453562 170.234898 79.705571 164.681167 -1.749422 -15.907458 2.907906 -0.747529 -2.506713 -0.299535
-15.291040 54.349103 25.980695 -173.794646 -31.726651 -11.504094 -0.545963 12.528507 4.563347 -0.304693 7.274663 1.661631 -0.351914 9.087123 2.076329 -0.299242 7.279699 1.664494 3.056758 21.435924 0.662289 3.096654 -2.917852 0.022209 0.453714 2.659234 -2.537727 -18.909226 -4.942529 8.059723 22.956099 -69.175681 -8.359970 9.386531 -9.150416 -21.014727 -8.079342 3.140066 -2.195738 3.321104 -1.937841 -3.830125 -75.471139 -75.887196 79.475556 12.518427 -8.336865 -1.638131 -17.435336 -33.640116 1.712421 29.047454 87.383993 25.625634 1.727700 -18.713453 2.815168 -0.044824 0.419076 -0.003839 -16.381376 -46.192532 12.449838 170.395372 79.710943 164.795595 -1.770287 -15.938325 2.948522 -0.736306 -2.481032 -0.305420
-15.307126 54.369013 25.975567 -173.764847 -31.690713 -11.473779 -0.560964 12.526586 4.534604 -0.319689 7.257210 1.653517 -0.340733 9.104018 2.077839 -0.277301 7.316896 1.669656 3.019949 21.377668 0.657381 3.123483 -2.815609 0.006365 0.436344 2.600280 -2.575124 -18.940040 -4.935987 8.073482 22.852469 -69.174460 -8.269843 9.397697 -9.092710 -21.056827 -8.090630 3.072616 -2.184018 3.358060 -1.913555 -3.866477 -75.601905 -75.834120 79.600774 12.504201 -8.446069 -1.485324 -17.440520 -33.703280 1.659063 29.435566 87.426455 25.986355 1.783355 -18.747894 2.816899 -0.114954 0.423060 -0.000886 -16.377293 -46.226064 12.419867 170.504944 79.716095 164.875947 -1.823328 -15.993894 2.957486 -0.697846 -2.427941 -0.275230
-15.321878 54.391502 25.967954 -173.738515 -31.665282 -11.456754 -0.580624 12.523422 4.514322 -0.310225 7.265731 1.656011 -0.340754 9.106659 2.078759 -0.278838 7.323433 1.672380 3.016507 21.383420 0.649537 3.112684 -2.832936 0.007018 0.446580 2.569796 -2.618540 -18.978309 -4.927086 8.087956 22.784609 -69.184217 -8.192778 9.386879 -9.008404 -21.142612 -8.079941 3.035011 -2.183077 3.337713 -1.909430 -3.870205 -75.616175 -75.823345 79.641240 12.486911 -8.526795 -1.357442 -17.451561 -33.746799 1.636464 29.442249 87.472280 25.980666 1.726416 -18.778342 2.829450 -0.075785 0.428507 0.010505 -16.371077 -46.247250 12.399906 170.594900 79.722958 164.940810 -1.859298 -16.026829 2.985097 -0.673297 -2.396473 -0.271636
-15.336994 54.414617 25.960100 -173.719759 -31.637233 -11.435937 -0.604504 12.504645 4.486856 -0.297651 7.288027 1.665014 -0.339263 9.111288 2.079488 -0.275173 7.329828 1.673351 3.009480 21.387065 0.642932 3.103641 -2.851705 0.005012 0.508654 2.557333 -2.703668 -19.071032 -4.918092 8.124957 22.651050 -69.207928 -8.047582 9.344701 -8.955731 -21.211410 -8.070612 2.997213 -2.183877 3.342200 -1.896005 -3.888742 -75.676070 -75.819278 79.728170 12.481116 -8.590076 -1.281103 -17.458072 -33.792187 1.608420 29.567577 87.509123 26.077279 1.747467 -18.810648 2.841010 -0.076679 0.433963 0.011829 -16.344478 -46.268761 12.378673 170.708627 79.735471 165.036459 -1.912046 -16.067406 3.010856 -0.634607 -2.357660 -0.264453
-15.352213 54.437336 25.953592 -173.691793 -31.594914 -11.417328 -0.623549 12.494460 4.471372 -0.273298 7.323377 1.680835 -0.362375 9.083832 2.067174 -0.271629 7.332221 1.673214 3.003113 21.388558 0.639097 3.115682 -2.826883 -0.006504 0.531060 2.538484 -2.754079 -19.113300 -4.928662 8.127939 22.254659 -69.239419 -7.647131 9.349551 -8.897815 -21.291404 -8.079331 2.958032 -2.183437 3.397242 -1.862756 -3.930334 -75.811994 -75.817456 79.885136 12.484127 -8.658749 -1.237077 -17.475500 -33.848153 1.581949 29.653774 87.546136 26.131753 1.779069 -18.844305 2.852844 -0.077348 0.440247 0.012381 -16.352640 -46.316707 12.351592 170.692034 79.731778 164.998688 -1.920072 -16.064329 3.030809 -0.638540 -2.359609 -0.264833
-15.365959 54.461823 25.945379 -173.667040 -31.565201 -11.402748 -0.607997 12.524164 4.485432 -0.294188 7.297638 1.664698 -0.365717 9.085823 2.067504 -0.280656 7.316019 1.668339 3.011861 21.404716 0.638059 3.099697 -2.855776 -0.005001 0.541918 2.530358 -2.779512 -19.127577 -4.944366 8.099923 21.793104 -69.272145 -7.191445 9.324913 -8.832489 -21.366881 -8.077249 2.940065 -2.183280 3.434070 -1.836088 -3.959868 -75.937508 -75.813535 80.007316 12.509425 -8.726161 -1.165352 -17.486443 -33.885269 1.577131 29.317337 87.585620 25.755322 1.765371 -18.877855 2.893158 -0.073888 0.447476 0.010558 -16.347925 -46.345803 12.328704 170.686170 79.732745 164.976322 -1.945905 -16.071253 3.049010 -0.631000 -2.354296 -0.258242
-15.376707 54.486889 25.937728 -173.650733 -31.535492 -11.394602 -0.619048 12.512461 4.478703 -0.279935 7.313950 1.672614 -0.330518 9.125402 2.079339 -0.325092 7.262069 1.657719 3.053816 21.442829 0.643263 3.068161 -2.895289 -0.001597 0.552640 2.522023 -2.804420 -19.134935 -4.969238 8.066213 21.388866 -69.291317 -6.803797 9.243693 -8.761247 -21.450508 -8.057422 2.930172 -2.177053 3.421681 -1.834733 -3.975437 -75.881919 -75.858628 80.026464 12.512462 -8.785590 -1.160564 -17.480445 -33.918678 1.571952 29.169630 87.613856 25.595170 1.729944 -18.907431 2.924953 -0.060063 0.456603 0.014776 -16.343090 -46.366470 12.333364 170.740871 79.740132 165.013143 -1.995643 -16.092986 3.070560 -0.602220 -2.334445 -0.247641
-15.386873 54.511334 25.931840 -173.631373 -31.498011 -11.381695 -0.637836 12.494149 4.463840 -0.261466 7.326778 1.683792 -0.326599 9.127437 2.079358 -0.296307 7.293202 1.662123 3.022987 21.402642 0.640343 3.078999 -2.896299 -0.005054 0.571500 2.493944 -2.891805 -19.204633 -4.995396 8.099465 21.134460 -69.298617 -6.561053 9.122318 -8.684741 -21.555424 -8.080314 2.879585 -2.170275 3.407999 -1.837931 -3.988090 -75.822198 -75.910117 80.050364 12.516878 -8.830398 -1.176777 -17.474587 -33.962630 1.547318 29.387790 87.633901 25.794511 1.778651 -18.933193 2.931780 -0.086561 0.456101 0.006933 -16.345688 -46.401005 12.319620 170.751163 79.739149 165.016881 -2.031396 -16.115959 3.070577 -0.566834 -2.314883 -0.239062
